<mxfile host="app.diagrams.net" modified="2021-02-03T07:54:11.588Z" agent="5.0 (Macintosh; Intel Mac OS X 10_15_7) AppleWebKit/537.36 (KHTML, like Gecko) Chrome/88.0.4324.96 Safari/537.36" etag="nkCh5CUl1l2sCUG-fiWi" version="14.2.9" type="github">
  <diagram id="VWVFJVes9-g0_I1mJS6b" name="第 1 页">
    <mxGraphModel dx="1298" dy="623" grid="1" gridSize="10" guides="1" tooltips="1" connect="1" arrows="1" fold="1" page="1" pageScale="1" pageWidth="827" pageHeight="1169" math="0" shadow="0">
      <root>
        <mxCell id="0" />
        <mxCell id="1" parent="0" />
        <mxCell id="UZmFs733BQsYc4uuSasd-6" value="" style="rounded=0;whiteSpace=wrap;html=1;sketch=0;strokeColor=#005700;fillColor=#008a00;fontColor=#ffffff;" vertex="1" parent="1">
          <mxGeometry x="160" y="40" width="670" height="80" as="geometry" />
        </mxCell>
        <mxCell id="UZmFs733BQsYc4uuSasd-7" value="视图层" style="text;html=1;align=center;verticalAlign=middle;resizable=0;points=[];autosize=1;fontColor=#46495D;fontSize=17;" vertex="1" parent="1">
          <mxGeometry x="65" y="65" width="70" height="30" as="geometry" />
        </mxCell>
        <mxCell id="UZmFs733BQsYc4uuSasd-8" value="&lt;span&gt;Scratch&amp;nbsp;&lt;/span&gt;MacOS" style="rounded=1;whiteSpace=wrap;html=1;sketch=0;strokeColor=#2D7600;fillColor=#60a917;fontSize=17;fontColor=#ffffff;" vertex="1" parent="1">
          <mxGeometry x="280" y="50" width="180" height="60" as="geometry" />
        </mxCell>
        <mxCell id="UZmFs733BQsYc4uuSasd-14" value="" style="endArrow=none;html=1;rounded=1;dashed=1;fillColor=#B2C9AB;fontSize=17;fontColor=#46495D;strokeWidth=3;" edge="1" parent="1">
          <mxGeometry relative="1" as="geometry">
            <mxPoint x="60" y="130" as="sourcePoint" />
            <mxPoint x="840" y="130" as="targetPoint" />
          </mxGeometry>
        </mxCell>
        <mxCell id="UZmFs733BQsYc4uuSasd-16" value="" style="rounded=0;whiteSpace=wrap;html=1;sketch=0;strokeColor=#9673a6;fillColor=#e1d5e7;" vertex="1" parent="1">
          <mxGeometry x="160" y="140" width="670" height="80" as="geometry" />
        </mxCell>
        <mxCell id="UZmFs733BQsYc4uuSasd-17" value="业务模块层" style="text;html=1;align=center;verticalAlign=middle;resizable=0;points=[];autosize=1;fontSize=17;fontColor=#46495D;" vertex="1" parent="1">
          <mxGeometry x="50" y="165" width="100" height="30" as="geometry" />
        </mxCell>
        <mxCell id="UZmFs733BQsYc4uuSasd-18" value="登录模块" style="rounded=1;whiteSpace=wrap;html=1;sketch=0;strokeColor=#b85450;fillColor=#f8cecc;fontSize=17;gradientColor=#ea6b66;" vertex="1" parent="1">
          <mxGeometry x="180" y="150" width="100" height="60" as="geometry" />
        </mxCell>
        <mxCell id="UZmFs733BQsYc4uuSasd-19" value="课表模块" style="rounded=1;whiteSpace=wrap;html=1;sketch=0;strokeColor=#b85450;fillColor=#f8cecc;fontSize=17;gradientColor=#ea6b66;" vertex="1" parent="1">
          <mxGeometry x="310" y="150" width="100" height="60" as="geometry" />
        </mxCell>
        <mxCell id="UZmFs733BQsYc4uuSasd-20" value="课堂模块" style="rounded=1;whiteSpace=wrap;html=1;sketch=0;strokeColor=#b85450;fillColor=#f8cecc;fontSize=17;gradientColor=#ea6b66;" vertex="1" parent="1">
          <mxGeometry x="445" y="150" width="100" height="60" as="geometry" />
        </mxCell>
        <mxCell id="UZmFs733BQsYc4uuSasd-21" value="作品模块" style="rounded=1;whiteSpace=wrap;html=1;sketch=0;strokeColor=#b85450;fillColor=#f8cecc;fontSize=17;gradientColor=#ea6b66;" vertex="1" parent="1">
          <mxGeometry x="580" y="150" width="100" height="60" as="geometry" />
        </mxCell>
        <mxCell id="UZmFs733BQsYc4uuSasd-22" value="创作模块" style="rounded=1;whiteSpace=wrap;html=1;sketch=0;strokeColor=#b85450;fillColor=#f8cecc;fontSize=17;gradientColor=#ea6b66;" vertex="1" parent="1">
          <mxGeometry x="710" y="150" width="100" height="60" as="geometry" />
        </mxCell>
        <mxCell id="UZmFs733BQsYc4uuSasd-26" value="" style="endArrow=none;html=1;rounded=1;dashed=1;fillColor=#B2C9AB;fontSize=17;fontColor=#46495D;strokeWidth=3;" edge="1" parent="1">
          <mxGeometry relative="1" as="geometry">
            <mxPoint x="60" y="230" as="sourcePoint" />
            <mxPoint x="840" y="230" as="targetPoint" />
          </mxGeometry>
        </mxCell>
        <mxCell id="UZmFs733BQsYc4uuSasd-28" value="" style="rounded=0;whiteSpace=wrap;html=1;sketch=0;strokeColor=#d79b00;fillColor=#ffe6cc;" vertex="1" parent="1">
          <mxGeometry x="160" y="240" width="670" height="190" as="geometry" />
        </mxCell>
        <mxCell id="UZmFs733BQsYc4uuSasd-29" value="通用组件层" style="text;html=1;align=center;verticalAlign=middle;resizable=0;points=[];autosize=1;fontSize=17;fontColor=#46495D;" vertex="1" parent="1">
          <mxGeometry x="50" y="320" width="100" height="30" as="geometry" />
        </mxCell>
        <mxCell id="UZmFs733BQsYc4uuSasd-50" value="版本升级" style="rounded=1;whiteSpace=wrap;html=1;sketch=0;strokeColor=#d79b00;fillColor=#ffcd28;fontSize=17;gradientColor=#ffa500;" vertex="1" parent="1">
          <mxGeometry x="180" y="260" width="120" height="60" as="geometry" />
        </mxCell>
        <mxCell id="UZmFs733BQsYc4uuSasd-51" value="环境检测" style="rounded=1;whiteSpace=wrap;html=1;sketch=0;strokeColor=#d79b00;fillColor=#ffcd28;fontSize=17;gradientColor=#ffa500;" vertex="1" parent="1">
          <mxGeometry x="350" y="260" width="120" height="60" as="geometry" />
        </mxCell>
        <mxCell id="UZmFs733BQsYc4uuSasd-52" value="系统检测" style="rounded=1;whiteSpace=wrap;html=1;sketch=0;strokeColor=#d79b00;fillColor=#ffcd28;fontSize=17;gradientColor=#ffa500;" vertex="1" parent="1">
          <mxGeometry x="520" y="260" width="120" height="60" as="geometry" />
        </mxCell>
        <mxCell id="UZmFs733BQsYc4uuSasd-53" value="权限检测" style="rounded=1;whiteSpace=wrap;html=1;sketch=0;strokeColor=#d79b00;fillColor=#ffcd28;fontSize=17;gradientColor=#ffa500;" vertex="1" parent="1">
          <mxGeometry x="690" y="260" width="120" height="60" as="geometry" />
        </mxCell>
        <mxCell id="UZmFs733BQsYc4uuSasd-54" value="下载管理" style="rounded=1;whiteSpace=wrap;html=1;sketch=0;strokeColor=#d79b00;fillColor=#ffcd28;fontSize=17;gradientColor=#ffa500;" vertex="1" parent="1">
          <mxGeometry x="180" y="350" width="120" height="60" as="geometry" />
        </mxCell>
        <mxCell id="UZmFs733BQsYc4uuSasd-55" value="文件管理" style="rounded=1;whiteSpace=wrap;html=1;sketch=0;strokeColor=#d79b00;fillColor=#ffcd28;fontSize=17;gradientColor=#ffa500;" vertex="1" parent="1">
          <mxGeometry x="350" y="350" width="120" height="60" as="geometry" />
        </mxCell>
        <mxCell id="UZmFs733BQsYc4uuSasd-56" value="IM" style="rounded=1;whiteSpace=wrap;html=1;sketch=0;strokeColor=#d79b00;fillColor=#ffcd28;fontSize=17;gradientColor=#ffa500;" vertex="1" parent="1">
          <mxGeometry x="520" y="350" width="120" height="60" as="geometry" />
        </mxCell>
        <mxCell id="UZmFs733BQsYc4uuSasd-57" value="日志管理" style="rounded=1;whiteSpace=wrap;html=1;sketch=0;strokeColor=#d79b00;fillColor=#ffcd28;fontSize=17;gradientColor=#ffa500;" vertex="1" parent="1">
          <mxGeometry x="690" y="350" width="120" height="60" as="geometry" />
        </mxCell>
        <mxCell id="UZmFs733BQsYc4uuSasd-59" value="Client" style="rounded=0;whiteSpace=wrap;html=1;sketch=0;strokeColor=#788AA3;fillColor=#B2C9AB;fontSize=17;fontColor=#46495D;verticalAlign=middle;align=center;" vertex="1" parent="1">
          <mxGeometry x="850" y="40" width="60" height="390" as="geometry" />
        </mxCell>
        <mxCell id="UZmFs733BQsYc4uuSasd-60" value="&lt;span&gt;Scratch Windows&lt;/span&gt;" style="rounded=1;whiteSpace=wrap;html=1;sketch=0;strokeColor=#2D7600;fillColor=#60a917;fontSize=17;fontColor=#ffffff;" vertex="1" parent="1">
          <mxGeometry x="535" y="50" width="175" height="60" as="geometry" />
        </mxCell>
      </root>
    </mxGraphModel>
  </diagram>
</mxfile>
